<svg width="33" height="33" viewBox="0 0 33 33" fill="none" xmlns="http://www.w3.org/2000/svg">
<path d="M16.5 29.04C23.4257 29.04 29.04 23.4256 29.04 16.5C29.04 9.57431 23.4257 3.95996 16.5 3.95996C9.57437 3.95996 3.96002 9.57431 3.96002 16.5C3.96002 23.4256 9.57437 29.04 16.5 29.04Z" fill="#F29100"/>
<path fill-rule="evenodd" clip-rule="evenodd" d="M0 16.5C0 7.38794 7.38794 0 16.5 0C25.6121 0 33 7.38794 33 16.5C33 25.6121 25.6121 33 16.5 33C7.38794 33 0 25.6121 0 16.5ZM30.9375 16.5C30.9375 8.54004 24.46 2.0625 16.5 2.0625C8.54004 2.0625 2.0625 8.54004 2.0625 16.5C2.0625 24.46 8.54004 30.9375 16.5 30.9375C24.46 30.9375 30.9375 24.46 30.9375 16.5Z" fill="#6A747D"/>
<path fill-rule="evenodd" clip-rule="evenodd" d="M24.9238 21.5534L24.8389 21.2951C24.6397 20.7011 23.9831 20.0812 23.3781 19.9152L21.1445 19.3045C20.5395 19.1403 19.6763 19.3617 19.2319 19.8063L18.424 20.6144C15.4876 19.8192 13.1838 17.5151 12.3907 14.5781L13.1986 13.7701C13.6413 13.3273 13.8626 12.464 13.6985 11.857L13.0897 9.62296C12.9256 9.01787 12.3021 8.36111 11.7082 8.16188L11.4536 8.07698C10.8579 7.87775 10.0076 8.07881 9.56491 8.52346L8.35494 9.73365C8.13915 9.94765 8.0008 10.562 8.0008 10.5638C7.96019 14.4048 9.46534 18.1036 12.1804 20.821C14.8881 23.5292 18.5733 25.0328 22.4006 24.9995C22.4209 24.9995 23.0535 24.8648 23.2693 24.6489L24.4793 23.4387C24.922 22.9978 25.1211 22.1474 24.9238 21.5534Z" fill="white"/>
</svg>
