<svg width="12" height="12" viewBox="0 0 12 12" fill="none" xmlns="http://www.w3.org/2000/svg">
<g clip-path="url(#clip0)">
<mask id="mask0" mask-type="alpha" maskUnits="userSpaceOnUse" x="0" y="0" width="13" height="13">
<path d="M9.15527e-05 0.000213623H12.0006V12.0008H9.15527e-05V0.000213623Z" fill="white"/>
</mask>
<g mask="url(#mask0)">
<path fill-rule="evenodd" clip-rule="evenodd" d="M6.41459 6.73404C6.41426 6.74988 6.41193 6.76554 6.40976 6.78138C6.40809 6.79321 6.40743 6.80538 6.40476 6.81704C6.40209 6.82904 6.39743 6.84104 6.39359 6.85321C6.38893 6.86788 6.38459 6.88238 6.37843 6.89621C6.37726 6.89854 6.37676 6.90121 6.37576 6.90354C6.36676 6.92288 6.35626 6.94088 6.34476 6.95804C6.34409 6.95904 6.34309 6.96004 6.34243 6.96121C6.32926 6.98038 6.31442 6.99788 6.29876 7.01421C6.29443 7.01871 6.28993 7.02271 6.28543 7.02688C6.27159 7.04004 6.25709 7.05221 6.24159 7.06321C6.23676 7.06654 6.23226 7.07021 6.22726 7.07354C6.20743 7.08654 6.18659 7.09788 6.16509 7.10721C6.16043 7.10921 6.15543 7.11054 6.15076 7.11254C6.13259 7.11954 6.11409 7.12538 6.09492 7.12971C6.08809 7.13138 6.08126 7.13288 6.07442 7.13404C6.04992 7.13854 6.02509 7.14171 5.99993 7.14171C5.99493 7.14171 5.98976 7.14021 5.98459 7.13988C5.96059 7.13904 5.93676 7.13704 5.91376 7.13221C5.90659 7.13071 5.89959 7.12754 5.89243 7.12554C5.87109 7.11971 5.85009 7.11338 5.83026 7.10438C5.82792 7.10321 5.82559 7.10304 5.82326 7.10204L3.52259 6.01688C3.31526 5.91904 3.22643 5.67171 3.32426 5.46438C3.42193 5.25721 3.66926 5.16838 3.87643 5.26604L5.58526 6.07188V2.49038C5.58526 2.26105 5.77109 2.07521 6.00026 2.07521C6.22942 2.07521 6.41526 2.26105 6.41526 2.49038V6.72654C6.41526 6.72904 6.41459 6.73154 6.41459 6.73404ZM6.00026 0.000213623C2.68642 0.000213623 9.15527e-05 2.68671 9.15527e-05 6.00038C9.15527e-05 9.31388 2.68642 12.0009 6.00026 12.0009C9.31392 12.0009 12.0006 9.31404 12.0006 6.00038C12.0006 2.68655 9.31392 0.000213623 6.00026 0.000213623Z" fill="white"/>
</g>
</g>
<defs>
<clipPath id="clip0">
<rect width="12" height="12" fill="white"/>
</clipPath>
</defs>
</svg>
