<svg width="205" height="40" viewBox="0 0 205 40" fill="none" xmlns="http://www.w3.org/2000/svg">
<mask id="mask0" mask-type="alpha" maskUnits="userSpaceOnUse" x="0" y="0" width="20" height="24">
<path fill-rule="evenodd" clip-rule="evenodd" d="M0 0H19.7954V23.9667H0V0Z" fill="white"/>
</mask>
<g mask="url(#mask0)">
<path fill-rule="evenodd" clip-rule="evenodd" d="M13.8087 17.9419C13.0393 19.1883 11.7353 19.8117 9.89784 19.8117C8.08179 19.8117 6.78381 19.1883 6.00352 17.9419C5.22285 16.6955 4.83252 14.7091 4.83252 11.9832C4.83252 9.25733 5.21722 7.27137 5.98699 6.02497C6.75639 4.7782 8.05963 4.15519 9.89784 4.15519C11.7353 4.15519 13.0393 4.7782 13.8087 6.02497C14.5781 7.27137 14.9628 9.25733 14.9628 11.9832C14.9628 14.7091 14.5781 16.6955 13.8087 17.9419ZM9.89772 -0.000244141C6.49855 -0.000244141 3.99914 1.04462 2.39948 3.13285C0.799451 5.22146 0 8.17183 0 11.9832C0 15.7728 0.799451 18.7175 2.39948 20.817C3.99914 22.9169 6.49855 23.9667 9.89772 23.9667C13.1196 23.9667 15.5743 22.9696 17.263 20.9749C18.9509 18.9807 19.7954 15.9833 19.7954 11.9832C19.7954 8.17183 19.0009 5.22146 17.4125 3.13285C15.8234 1.04462 13.3187 -0.000244141 9.89772 -0.000244141Z" fill="#536780"/>
</g>
<path fill-rule="evenodd" clip-rule="evenodd" d="M38.1749 14.1272C37.5514 13.332 36.7806 12.678 35.8626 12.166C36.9395 11.4648 37.8968 10.2131 38.7356 8.41045C39.5745 6.60783 40.368 4.10403 41.116 0.899414H36.1687C35.5791 3.21405 35.0406 5.05556 34.5533 6.42433C34.066 7.79309 33.5783 8.78578 33.0914 9.40352C32.6037 10.0213 32.0426 10.3297 31.4079 10.3297H28.6876V0.899414H23.8933V24.0001H28.6876V14.2858H31.0849C31.8783 14.2858 32.5356 14.4859 33.0572 14.8869C33.5783 15.2871 34.0487 15.8909 34.4683 16.6978C34.8876 17.5044 35.276 18.5201 35.6329 19.7438C35.9899 20.968 36.3895 22.387 36.8318 24.0001H41.8133C41.031 20.8846 40.3853 18.659 39.8749 17.3239C39.3649 15.9883 38.798 14.9228 38.1749 14.1272Z" fill="#536780"/>
<path fill-rule="evenodd" clip-rule="evenodd" d="M43.8044 5.20546H50.9102V24.0001H55.6142V5.20546H62.72V0.899414H43.8044V5.20546Z" fill="#536780"/>
<path fill-rule="evenodd" clip-rule="evenodd" d="M70.2259 16.9897V0.899414H65.7068V24.0001H70.8594L80.1029 6.84156V24.0001H84.6224V0.899414H78.9903L70.2259 16.9897Z" fill="#536780"/>
<path fill-rule="evenodd" clip-rule="evenodd" d="M94.2904 5.81352C94.2904 9.24187 94.1766 11.9818 93.9495 14.0334C93.7221 16.0849 93.3785 17.5625 92.9181 18.4659C92.4581 19.3692 91.83 19.8209 91.035 19.8209C90.4555 19.8209 89.8135 19.6739 89.109 19.3799L87.6091 22.9881C88.7794 23.6629 90.2226 24.0001 91.9384 24.0001C94.3926 24.0001 96.1766 22.5989 97.2902 19.7961C98.4037 16.9938 98.9605 12.5886 98.9605 6.58058V4.73586H104.722V23.4941H109.511V0.899414H94.2904V5.81352Z" fill="#536780"/>
<path fill-rule="evenodd" clip-rule="evenodd" d="M119.179 5.81352C119.179 9.24187 119.066 11.9818 118.838 14.0334C118.611 16.0849 118.267 17.5625 117.807 18.4659C117.347 19.3692 116.719 19.8209 115.924 19.8209C115.344 19.8209 114.702 19.6739 113.998 19.3799L112.498 22.9881C113.668 23.6629 115.111 24.0001 116.827 24.0001C119.282 24.0001 121.066 22.5989 122.179 19.7961C123.293 16.9938 123.849 12.5886 123.849 6.58058V4.73586H129.611V23.4941H134.4V0.899414H119.179V5.81352Z" fill="#536780"/>
<path fill-rule="evenodd" clip-rule="evenodd" d="M143.897 16.9897V0.899414H139.378V24.0001H144.531L153.774 6.84156V24.0001H158.294V0.899414H152.661L143.897 16.9897Z" fill="#536780"/>
<mask id="mask1" mask-type="alpha" maskUnits="userSpaceOnUse" x="161" y="0" width="21" height="24">
<path fill-rule="evenodd" clip-rule="evenodd" d="M161.506 0H181.907V23.9667H161.506V0Z" fill="white"/>
</mask>
<g mask="url(#mask1)">
<path fill-rule="evenodd" clip-rule="evenodd" d="M175.737 17.9419C174.944 19.1883 173.6 19.8117 171.706 19.8117C169.835 19.8117 168.497 19.1883 167.693 17.9419C166.889 16.6955 166.486 14.7091 166.486 11.9832C166.486 9.25733 166.883 7.27137 167.676 6.02497C168.469 4.7782 169.812 4.15519 171.706 4.15519C173.6 4.15519 174.944 4.7782 175.737 6.02497C176.53 7.27137 176.926 9.25733 176.926 11.9832C176.926 14.7091 176.53 16.6955 175.737 17.9419ZM171.706 -0.000244141C168.204 -0.000244141 165.628 1.04462 163.979 3.13285C162.33 5.22146 161.506 8.17183 161.506 11.9832C161.506 15.7728 162.33 18.7175 163.979 20.817C165.628 22.9169 168.204 23.9667 171.706 23.9667C175.027 23.9667 177.557 22.9696 179.297 20.9749C181.036 18.9807 181.907 15.9833 181.907 11.9832C181.907 8.17183 181.088 5.22146 179.451 3.13285C177.813 1.04462 175.232 -0.000244141 171.706 -0.000244141Z" fill="#536780"/>
</g>
<mask id="mask2" mask-type="alpha" maskUnits="userSpaceOnUse" x="186" y="1" width="19" height="23">
<path fill-rule="evenodd" clip-rule="evenodd" d="M186.437 1.06689H205V23.862H186.437V1.06689Z" fill="white"/>
</mask>
<g mask="url(#mask2)">
<path fill-rule="evenodd" clip-rule="evenodd" d="M200.267 1.06689V9.92785H191.153V1.06689H186.437V23.862H191.153V14.1776H200.267V23.862H205V1.06689H200.267Z" fill="#536780"/>
</g>
<path fill-rule="evenodd" clip-rule="evenodd" d="M2.14035 32.7764L0 38.7764H1.30861L1.72927 37.5585H4.2197L4.64952 38.7764H6L3.85486 32.7764H2.14035ZM2.97648 34.0072L3.84569 36.4871H2.10287L2.97648 34.0072Z" fill="#F29100"/>
<path fill-rule="evenodd" clip-rule="evenodd" d="M13.948 33.2371H12.6874C12.6457 34.2371 12.5415 35.0951 12.3758 35.8107C12.2096 36.5263 12.0504 37.0951 11.898 37.5167H13.948V33.2371ZM10.072 39.7763V37.5403H10.6416C10.9559 36.8123 11.1837 36.0027 11.3257 35.1119C11.4678 34.2215 11.539 33.2291 11.539 32.1355H15.204V37.5403H15.9398V39.7763H14.6746V38.6231H11.3372V39.7763H10.072Z" fill="#F29100"/>
<path fill-rule="evenodd" clip-rule="evenodd" d="M24.6072 36.6263C24.6072 36.3355 24.513 36.1303 24.3246 36.0099C24.1363 35.8895 23.7834 35.8295 23.2658 35.8295H22.4091V37.4515H23.0506C23.5441 37.4515 23.884 37.4263 24.0712 37.3763C24.258 37.3263 24.3939 37.2419 24.4793 37.1231C24.5647 37.0043 24.6072 36.8387 24.6072 36.6263ZM24.2841 33.9403C24.2841 33.6935 24.1976 33.5223 24.0241 33.4271C23.8503 33.3319 23.5812 33.2843 23.2164 33.2843H22.4091V34.6763H23.1804C23.5544 34.6763 23.832 34.6215 24.0127 34.5123C24.1937 34.4027 24.2841 34.2123 24.2841 33.9403ZM25.8992 36.7435C25.8992 37.3935 25.6852 37.8691 25.2576 38.1707C24.83 38.4723 24.2362 38.6231 23.4767 38.6231H21.1439V32.1355H23.3378C24.1332 32.1355 24.7029 32.2567 25.0466 32.4991C25.3908 32.7411 25.5627 33.1247 25.5627 33.6499C25.5627 34.0527 25.4693 34.3795 25.2824 34.6295C25.0953 34.8795 24.8032 35.0467 24.4054 35.1311C24.9257 35.2059 25.3046 35.3779 25.5424 35.6467C25.7801 35.9155 25.8992 36.2811 25.8992 36.7435Z" fill="#F29100"/>
<mask id="mask3" mask-type="alpha" maskUnits="userSpaceOnUse" x="31" y="32" width="6" height="7">
<path fill-rule="evenodd" clip-rule="evenodd" d="M31.0896 32H36.4371V38.759H31.0896V32Z" fill="white"/>
</mask>
<g mask="url(#mask3)">
<path fill-rule="evenodd" clip-rule="evenodd" d="M35.1317 35.3794C35.1317 34.6106 35.028 34.0506 34.8201 33.699C34.6122 33.3474 34.2601 33.1714 33.7635 33.1714C33.267 33.1714 32.9148 33.3474 32.707 33.699C32.4991 34.0506 32.3954 34.6106 32.3954 35.3794C32.3954 36.1482 32.5006 36.7082 32.7116 37.0598C32.9225 37.4114 33.2732 37.5874 33.7635 37.5874C34.2601 37.5874 34.6122 37.4114 34.8201 37.0598C35.028 36.7082 35.1317 36.1482 35.1317 35.3794ZM36.4371 35.3794C36.4371 36.5074 36.209 37.353 35.753 37.9154C35.2971 38.4778 34.6337 38.759 33.7635 38.759C32.8452 38.759 32.1703 38.463 31.7381 37.871C31.3059 37.2786 31.0896 36.4482 31.0896 35.3794C31.0896 34.3042 31.3059 33.4722 31.7381 32.8834C32.1703 32.2942 32.8452 31.9998 33.7635 31.9998C34.6877 31.9998 35.3641 32.2942 35.7936 32.8834C36.2227 33.4722 36.4371 34.3042 36.4371 35.3794Z" fill="#F29100"/>
</g>
<path fill-rule="evenodd" clip-rule="evenodd" d="M43.1709 32.1355V34.7839H43.8887C44.0563 34.7839 44.2041 34.6971 44.3327 34.5239C44.4614 34.3503 44.59 34.0715 44.7186 33.6871C44.8472 33.3027 44.9893 32.7855 45.1447 32.1355H46.4501C46.2529 33.0355 46.0435 33.7387 45.8223 34.2447C45.601 34.7511 45.348 35.1027 45.0639 35.2995C45.3062 35.4435 45.5095 35.6271 45.6741 35.8503C45.8387 36.0739 45.988 36.3731 46.1228 36.7479C46.2575 37.1231 46.4279 37.7479 46.6342 38.6231H45.3196C45.2032 38.1699 45.0976 37.7715 45.0034 37.4275C44.9092 37.0839 44.8067 36.7987 44.696 36.5723C44.5854 36.3455 44.4614 36.1763 44.3239 36.0635C44.1861 35.9511 44.0127 35.8947 43.8033 35.8947H43.1709V38.6231H41.9057V32.1355H43.1709Z" fill="#F29100"/>
<path fill-rule="evenodd" clip-rule="evenodd" d="M53.368 36.1481H55.0413L54.2067 33.4669L53.368 36.1481ZM51.3494 38.6229L53.404 32.1357H55.0505L57.1092 38.6229H55.813L55.4003 37.3061H53.0093L52.6054 38.6229H51.3494Z" fill="#F29100"/>
<path fill-rule="evenodd" clip-rule="evenodd" d="M64.2335 33.3449V38.6229H62.9683V33.3449H61.0573V32.1357H66.1445V33.3449H64.2335Z" fill="#F29100"/>
<mask id="mask4" mask-type="alpha" maskUnits="userSpaceOnUse" x="70" y="32" width="7" height="7">
<path fill-rule="evenodd" clip-rule="evenodd" d="M70.9135 32H76.207V38.7589H70.9135V32Z" fill="white"/>
</mask>
<g mask="url(#mask4)">
<path fill-rule="evenodd" clip-rule="evenodd" d="M76.207 37.5498C75.941 37.9654 75.6141 38.271 75.2267 38.4662C74.8396 38.6614 74.3634 38.759 73.798 38.759C71.8751 38.759 70.9135 37.6326 70.9135 35.3794C70.9135 34.2262 71.1574 33.3746 71.6447 32.8246C72.132 32.2746 72.8348 31.9998 73.7532 31.9998C74.3604 31.9998 74.8553 32.107 75.2381 32.321C75.621 32.535 75.9123 32.8154 76.1129 33.1622L75.1302 33.959C74.9866 33.7342 74.8553 33.5718 74.7355 33.4718C74.6161 33.3718 74.4798 33.2966 74.3274 33.2466C74.1747 33.1966 73.9925 33.1718 73.78 33.1718C73.2716 33.1718 72.8842 33.3414 72.6182 33.6802C72.3521 34.0194 72.2189 34.5858 72.2189 35.3794C72.2189 36.1202 72.3437 36.6734 72.5937 37.039C72.8433 37.4046 73.2418 37.5874 73.7892 37.5874C74.1571 37.5874 74.4434 37.5138 74.6482 37.367C74.853 37.2202 75.0391 37.025 75.2068 36.781L76.207 37.5498Z" fill="#F29100"/>
</g>
<path fill-rule="evenodd" clip-rule="evenodd" d="M82.8107 32.1355V34.7839H83.5285C83.6962 34.7839 83.8439 34.6971 83.9726 34.5239C84.1012 34.3503 84.2298 34.0715 84.3584 33.6871C84.4871 33.3027 84.6291 32.7855 84.7845 32.1355H86.0899C85.8928 33.0355 85.6834 33.7387 85.4621 34.2447C85.2408 34.7511 84.9878 35.1027 84.7037 35.2995C84.9461 35.4435 85.1493 35.6271 85.3139 35.8503C85.4785 36.0739 85.6278 36.3731 85.7626 36.7479C85.8973 37.1231 86.0677 37.7479 86.274 38.6231H84.9595C84.8431 38.1699 84.7374 37.7715 84.6433 37.4275C84.5491 37.0839 84.4465 36.7987 84.3359 36.5723C84.2252 36.3455 84.1012 36.1763 83.9638 36.0635C83.8259 35.9511 83.6525 35.8947 83.4431 35.8947H82.8107V38.6231H81.5455V32.1355H82.8107Z" fill="#F29100"/>
<mask id="mask5" mask-type="alpha" maskUnits="userSpaceOnUse" x="91" y="32" width="6" height="7">
<path fill-rule="evenodd" clip-rule="evenodd" d="M91.2535 32H96.601V38.759H91.2535V32Z" fill="white"/>
</mask>
<g mask="url(#mask5)">
<path fill-rule="evenodd" clip-rule="evenodd" d="M95.2957 35.3794C95.2957 34.6106 95.1919 34.0506 94.984 33.699C94.7762 33.3474 94.424 33.1714 93.9275 33.1714C93.431 33.1714 93.0788 33.3474 92.8709 33.699C92.6631 34.0506 92.5593 34.6106 92.5593 35.3794C92.5593 36.1482 92.6646 36.7082 92.8755 37.0598C93.0864 37.4114 93.4371 37.5874 93.9275 37.5874C94.424 37.5874 94.7762 37.4114 94.984 37.0598C95.1919 36.7082 95.2957 36.1482 95.2957 35.3794ZM96.601 35.3794C96.601 36.5074 96.3729 37.353 95.917 37.9154C95.461 38.4778 94.7976 38.759 93.9275 38.759C93.0091 38.759 92.3342 38.463 91.902 37.871C91.4698 37.2786 91.2535 36.4482 91.2535 35.3794C91.2535 34.3042 91.4698 33.4722 91.902 32.8834C92.3342 32.2942 93.0091 31.9998 93.9275 31.9998C94.8516 31.9998 95.528 32.2942 95.9575 32.8834C96.3867 33.4722 96.601 34.3042 96.601 35.3794Z" fill="#F29100"/>
</g>
<path fill-rule="evenodd" clip-rule="evenodd" d="M102.07 38.6231V32.1355H106.103V33.3027H103.335V34.6855H105.667V35.8575H103.335V37.4139H106.103V38.6231H102.07Z" fill="#F29100"/>
<path fill-rule="evenodd" clip-rule="evenodd" d="M121.647 36.6355C121.647 36.4107 121.603 36.2323 121.515 36.1011C121.427 35.9699 121.293 35.8763 121.113 35.8199C120.934 35.7635 120.644 35.7355 120.243 35.7355H119.517V37.5403H120.324C120.749 37.5403 121.076 37.4775 121.304 37.3527C121.533 37.2275 121.647 36.9887 121.647 36.6355ZM119.517 34.6479H120.382C121.238 34.6479 121.88 34.8239 122.309 35.1755C122.738 35.5271 122.953 36.0419 122.953 36.7199C122.953 37.3543 122.753 37.8299 122.354 38.1471C121.955 38.4643 121.309 38.6231 120.418 38.6231H118.252V32.1355H122.477V33.2183H119.517V34.6479Z" fill="#F29100"/>
<mask id="mask6" mask-type="alpha" maskUnits="userSpaceOnUse" x="128" y="32" width="9" height="7">
<path fill-rule="evenodd" clip-rule="evenodd" d="M128.507 32H136.147V38.7591H128.507V32Z" fill="white"/>
</mask>
<g mask="url(#mask6)">
<path fill-rule="evenodd" clip-rule="evenodd" d="M134.828 35.3887C134.828 33.8451 134.384 33.0731 133.496 33.0731C133.056 33.0731 132.724 33.2607 132.5 33.6355C132.275 34.0107 132.163 34.5951 132.163 35.3887C132.163 36.1607 132.274 36.7355 132.495 37.1135C132.716 37.4919 133.05 37.6807 133.496 37.6807C133.944 37.6807 134.278 37.4839 134.498 37.0903C134.718 36.6967 134.828 36.1295 134.828 35.3887ZM129.772 38.6231H128.507V32.1355H129.772V34.8495H130.858C130.92 33.9215 131.172 33.2143 131.614 32.7287C132.055 32.2427 132.682 31.9995 133.496 31.9995C134.366 31.9995 135.025 32.2847 135.474 32.8551C135.922 33.4255 136.147 34.2699 136.147 35.3887C136.147 36.4979 135.921 37.3371 135.469 37.9059C135.018 38.4747 134.36 38.7591 133.496 38.7591C132.694 38.7591 132.073 38.5199 131.634 38.0419C131.194 37.5635 130.935 36.8623 130.858 35.9371H129.772V38.6231Z" fill="#F29100"/>
</g>
<path fill-rule="evenodd" clip-rule="evenodd" d="M144.845 34.3199C144.845 33.9543 144.749 33.6903 144.556 33.5279C144.363 33.3651 144.015 33.2839 143.513 33.2839H142.88V35.4635H143.396C143.86 35.4635 144.181 35.4299 144.359 35.3627C144.536 35.2955 144.662 35.1823 144.735 35.0231C144.808 34.8635 144.845 34.6291 144.845 34.3199ZM146.151 34.3107C146.151 35.0919 145.975 35.6715 145.623 36.0495C145.272 36.4279 144.702 36.6167 143.912 36.6167H142.88V38.6231H141.615V32.1355H143.948C144.651 32.1355 145.194 32.3067 145.576 32.6487C145.959 32.9911 146.151 33.5451 146.151 34.3107Z" fill="#F29100"/>
<mask id="mask7" mask-type="alpha" maskUnits="userSpaceOnUse" x="151" y="32" width="6" height="7">
<path fill-rule="evenodd" clip-rule="evenodd" d="M151.296 32H156.644V38.759H151.296V32Z" fill="white"/>
</mask>
<g mask="url(#mask7)">
<path fill-rule="evenodd" clip-rule="evenodd" d="M155.339 35.3794C155.339 34.6106 155.235 34.0506 155.027 33.699C154.819 33.3474 154.467 33.1714 153.97 33.1714C153.474 33.1714 153.122 33.3474 152.914 33.699C152.706 34.0506 152.602 34.6106 152.602 35.3794C152.602 36.1482 152.707 36.7082 152.918 37.0598C153.129 37.4114 153.48 37.5874 153.97 37.5874C154.467 37.5874 154.819 37.4114 155.027 37.0598C155.235 36.7082 155.339 36.1482 155.339 35.3794ZM156.644 35.3794C156.644 36.5074 156.416 37.353 155.96 37.9154C155.504 38.4778 154.84 38.759 153.97 38.759C153.052 38.759 152.377 38.463 151.945 37.871C151.513 37.2786 151.296 36.4482 151.296 35.3794C151.296 34.3042 151.513 33.4722 151.945 32.8834C152.377 32.2942 153.052 31.9998 153.97 31.9998C154.894 31.9998 155.571 32.2942 156 32.8834C156.43 33.4722 156.644 34.3042 156.644 35.3794Z" fill="#F29100"/>
</g>
</svg>
