<svg width="12" height="9" viewBox="0 0 12 9" fill="none" xmlns="http://www.w3.org/2000/svg">
<path fill-rule="evenodd" clip-rule="evenodd" d="M0.948926 0.496205L5.27128 3.91989C5.46731 4.07508 5.73741 4.14395 5.99971 4.13115C6.26165 4.14395 6.53175 4.07546 6.72778 3.91989L11.0501 0.496205C11.3965 0.223506 11.318 0 10.8786 0H6.00008H1.12175C0.681796 0 0.603458 0.223506 0.948926 0.496205Z" fill="#CDD6DE"/>
<mask id="mask0" mask-type="alpha" maskUnits="userSpaceOnUse" x="0" y="1" width="12" height="8">
<path d="M0 1.26566H12V8.40002H0V1.26566Z" fill="#CDD6DE"/>
</mask>
<g mask="url(#mask0)">
<path fill-rule="evenodd" clip-rule="evenodd" d="M11.3624 1.39954L6.63909 4.98565C6.46236 5.11838 6.23106 5.18298 6.00069 5.18001C5.76976 5.18298 5.53827 5.11801 5.36173 4.98565L0.637474 1.39954C0.286808 1.1337 0 1.27627 0 1.71623V7.59997C0 8.03992 0.359948 8.40006 0.799906 8.40006H5.99976H11.2C11.6399 8.40006 12.0001 8.03992 12.0001 7.59997V1.71623C12.0001 1.27627 11.7131 1.1337 11.3624 1.39954Z" fill="#CDD6DE"/>
</g>
</svg>
