<svg width="28" height="28" viewBox="0 0 28 28" fill="none" xmlns="http://www.w3.org/2000/svg">
<g filter="url(#filter0_d)">
<path fill-rule="evenodd" clip-rule="evenodd" d="M4 12C4 6.47691 8.39323 2 13.8131 2C19.2329 2 23.6262 6.47691 23.6262 12C23.6262 17.5231 19.2329 22 13.8131 22C8.39323 22 4 17.5231 4 12ZM5.53329 12C5.53329 16.66 9.24015 20.4375 13.8131 20.4375C18.386 20.4375 22.0929 16.66 22.0929 12C22.0929 7.33996 18.386 3.5625 13.8131 3.5625C9.24015 3.5625 5.53329 7.33996 5.53329 12Z" fill="#F29100"/>
<path fill-rule="evenodd" clip-rule="evenodd" d="M8.32434 16.5946H11.027V9.02707H8.32434V16.5946ZM9.68393 5.24329C8.86205 5.24329 8.32434 5.82719 8.32434 6.59435C8.32434 7.34522 8.84646 7.94599 9.6524 7.94599H9.66799C10.506 7.94599 11.027 7.34522 11.027 6.59435C11.0111 5.82719 10.506 5.24329 9.68393 5.24329ZM20.2162 12.0516V16.5946H17.7372V12.356C17.7372 11.2918 17.3792 10.565 16.4816 10.565C15.7966 10.565 15.3897 11.0543 15.21 11.5281C15.1447 11.6974 15.1279 11.9325 15.1279 12.17V16.5944H12.6487C12.6487 16.5944 12.6819 9.41565 12.6487 8.67255H15.1281V9.79516C15.1231 9.804 15.1161 9.81264 15.1117 9.82109H15.1281V9.79516C15.4576 9.25654 16.0451 8.48653 17.3624 8.48653C18.9934 8.48653 20.2162 9.61876 20.2162 12.0516Z" fill="#F29100"/>
</g>
<defs>
<filter id="filter0_d" x="0" y="0" width="27.6262" height="28" filterUnits="userSpaceOnUse" color-interpolation-filters="sRGB">
<feFlood flood-opacity="0" result="BackgroundImageFix"/>
<feColorMatrix in="SourceAlpha" type="matrix" values="0 0 0 0 0 0 0 0 0 0 0 0 0 0 0 0 0 0 127 0"/>
<feOffset dy="2"/>
<feGaussianBlur stdDeviation="2"/>
<feColorMatrix type="matrix" values="0 0 0 0 0 0 0 0 0 0 0 0 0 0 0 0 0 0 0.104704 0"/>
<feBlend mode="normal" in2="BackgroundImageFix" result="effect1_dropShadow"/>
<feBlend mode="normal" in="SourceGraphic" in2="effect1_dropShadow" result="shape"/>
</filter>
</defs>
</svg>
