<svg width="28" height="28" viewBox="0 0 28 28" fill="none" xmlns="http://www.w3.org/2000/svg">
<g filter="url(#filter0_d)">
<path fill-rule="evenodd" clip-rule="evenodd" d="M14.0062 21.9999C13.9413 21.9999 13.8763 21.9999 13.8108 21.9996C12.2725 22.0035 10.851 21.9636 9.46865 21.8779C8.20129 21.7993 7.04443 21.353 6.12295 20.5873C5.23382 19.8485 4.62664 18.8495 4.31834 17.6184C4.05001 16.5466 4.03579 15.4945 4.02216 14.4769C4.01228 13.7468 4.0021 12.8816 4 12.0018C4.0021 11.1183 4.01228 10.2531 4.02216 9.52298C4.03579 8.50553 4.05001 7.45343 4.31834 6.38151C4.62664 5.15043 5.23382 4.15143 6.12295 3.4126C7.04443 2.64692 8.20129 2.2006 9.4688 2.12201C10.8512 2.03641 12.2729 1.99643 13.8146 2.00025C15.3534 1.99689 16.7744 2.03641 18.1568 2.12201C19.4241 2.2006 20.581 2.64692 21.5025 3.4126C22.3917 4.15143 22.9988 5.15043 23.3071 6.38151C23.5754 7.45328 23.5896 8.50553 23.6033 9.52298C23.6131 10.2531 23.6235 11.1183 23.6254 11.9981V12.0018C23.6235 12.8816 23.6131 13.7468 23.6033 14.4769V14.4771C23.5896 15.4945 23.5755 16.5465 23.3071 17.6184C22.9988 18.8495 22.3917 19.8485 21.5025 20.5873C20.581 21.353 19.4241 21.7993 18.1568 21.8779C16.833 21.96 15.4731 21.9999 14.0062 21.9999ZM13.8108 20.4371C15.3242 20.4408 16.7138 20.4019 18.0636 20.3183C19.0219 20.2589 19.8528 19.942 20.5335 19.3763C21.1627 18.8534 21.5961 18.132 21.8214 17.232C22.0448 16.3398 22.0577 15.3819 22.0701 14.4555C22.0798 13.7303 22.09 12.8712 22.0921 11.9999C22.09 11.1285 22.0798 10.2696 22.0701 9.54435C22.0577 8.61799 22.0448 7.66004 21.8214 6.7677C21.5961 5.86774 21.1627 5.14631 20.5335 4.62339C19.8528 4.0579 19.0219 3.74097 18.0636 3.68161C16.7138 3.59784 15.3242 3.55924 13.8144 3.5626C12.3014 3.55893 10.9117 3.59784 9.56179 3.68161C8.60348 3.74097 7.77259 4.0579 7.09189 4.62339C6.4627 5.14631 6.02937 5.86774 5.80402 6.7677C5.58061 7.66004 5.56773 8.61783 5.55531 9.54435C5.54557 10.2702 5.53539 11.1297 5.53329 12.0018C5.53539 12.87 5.54557 13.7297 5.55531 14.4555C5.56773 15.3819 5.58061 16.3398 5.80402 17.232C6.02937 18.132 6.4627 18.8534 7.09189 19.3763C7.77259 19.9418 8.60348 20.2588 9.56179 20.3181C10.9117 20.4019 12.3017 20.441 13.8108 20.4371ZM8.98276 11.9999C8.98276 14.6924 11.1324 16.8828 13.7743 16.8828C16.4164 16.8828 18.5658 14.6924 18.5658 11.9999C18.5658 9.30753 16.4164 7.11713 13.7743 7.11713C11.1324 7.11713 8.98276 9.30753 8.98276 11.9999ZM13.7743 8.67963C11.9778 8.67963 10.5161 10.1692 10.5161 11.9999C10.5161 13.8307 11.9778 15.3203 13.7743 15.3203C15.571 15.3203 17.0326 13.8307 17.0326 11.9999C17.0326 10.1692 15.571 8.67963 13.7743 8.67963ZM17.9525 6.72651C17.9525 6.07923 18.4675 5.55463 19.1025 5.55463C19.7377 5.55463 20.2525 6.07923 20.2525 6.72651C20.2525 7.37378 19.7377 7.89838 19.1025 7.89838C18.4675 7.89838 17.9525 7.37378 17.9525 6.72651Z" fill="#F29100"/>
</g>
<defs>
<filter id="filter0_d" x="0" y="0" width="27.6254" height="27.9999" filterUnits="userSpaceOnUse" color-interpolation-filters="sRGB">
<feFlood flood-opacity="0" result="BackgroundImageFix"/>
<feColorMatrix in="SourceAlpha" type="matrix" values="0 0 0 0 0 0 0 0 0 0 0 0 0 0 0 0 0 0 127 0"/>
<feOffset dy="2"/>
<feGaussianBlur stdDeviation="2"/>
<feColorMatrix type="matrix" values="0 0 0 0 0 0 0 0 0 0 0 0 0 0 0 0 0 0 0.104704 0"/>
<feBlend mode="normal" in2="BackgroundImageFix" result="effect1_dropShadow"/>
<feBlend mode="normal" in="SourceGraphic" in2="effect1_dropShadow" result="shape"/>
</filter>
</defs>
</svg>
