<svg width="20" height="23" viewBox="0 0 20 23" fill="none" xmlns="http://www.w3.org/2000/svg">
<g id="pdf">
<g id="pdf_2">
<path id="Path" fill-rule="evenodd" clip-rule="evenodd" d="M1.42856 0H13.5664L20 6.44865V21.5625C20 22.3567 19.36 23 18.5714 23H1.42856C0.639966 23 0 22.3567 0 21.5625V1.43749C0 0.643295 0.64004 0 1.42856 0Z" fill="#DF001B"/>
<path id="Path_2" fill-rule="evenodd" clip-rule="evenodd" d="M19.9999 6.46875H15.0045C14.2133 6.46875 13.5713 5.82335 13.5713 5.02806V0L19.9999 6.46875Z" fill="#A10014"/>
<path id="Shape" fill-rule="evenodd" clip-rule="evenodd" d="M6.42419 10.0625H5.43542C5.15587 10.0625 5 10.2482 5 10.5305V13.907C5 14.208 5.17873 14.375 5.41893 14.375C5.65913 14.375 5.83785 14.208 5.83785 13.907V12.9212H6.4577C7.22268 12.9212 7.85399 12.3753 7.85399 11.4976C7.85407 10.6386 7.24495 10.0625 6.42419 10.0625ZM10.0325 10.0625H9.03444C8.76347 10.0625 8.57113 10.2497 8.57113 10.5276V13.9099C8.57113 14.2547 8.8478 14.3628 9.04584 14.3628H10.0933C11.333 14.3628 12.1516 13.5412 12.1516 12.2731C12.1509 10.9324 11.3802 10.0625 10.0325 10.0625ZM14.6432 10.8913C14.8827 10.8913 15 10.6811 15 10.4773C15 10.2663 14.8777 10.0625 14.6432 10.0625H13.2791C13.0124 10.0625 12.8637 10.285 12.8637 10.5305V13.907C12.8637 14.208 13.0338 14.375 13.2641 14.375C13.4929 14.375 13.6638 14.208 13.6638 13.907V12.9802H14.4888C14.7448 12.9802 14.8727 12.7692 14.8727 12.5597C14.8727 12.3545 14.7448 12.1507 14.4888 12.1507H13.6638V10.8913H14.6432ZM9.47201 13.529H10.0805C10.8568 13.529 11.2115 12.9558 11.2115 12.2314C11.2115 11.4573 10.8505 10.8964 10.0204 10.8964H9.47201V13.529ZM5.83793 12.1292H6.40776C6.75952 12.1292 6.98256 11.8527 6.9833 11.4926C6.9833 11.1318 6.75952 10.8553 6.40776 10.8553H5.83793V12.1292Z" fill="white"/>
</g>
</g>
</svg>
