<svg width="12" height="12" viewBox="0 0 12 12" fill="none" xmlns="http://www.w3.org/2000/svg">
<path fill-rule="evenodd" clip-rule="evenodd" d="M5.74053 7.77796C6.11797 7.77796 6.49541 7.77814 6.87284 7.77796C7.01347 7.77777 7.04066 7.74217 7.00091 7.60958C6.62891 6.36346 6.25653 5.11716 5.88434 3.87104C5.86878 3.81856 5.85546 3.76015 5.78703 3.75885C5.71896 3.75737 5.70265 3.81263 5.68559 3.86603C5.28527 5.11623 4.8844 6.36588 4.48352 7.6157C4.44358 7.74106 4.47133 7.77777 4.60821 7.77796C4.98565 7.77814 5.36309 7.77796 5.74053 7.77796ZM0 11.3904C0.121501 11.0633 0.244501 10.7368 0.364127 10.4089C1.37644 7.63517 2.3882 4.86126 3.40183 2.08809C3.41683 2.04692 3.44758 1.99834 3.48452 1.97998C3.85352 1.79714 4.22533 1.61986 4.61702 1.43091C4.60371 1.47634 4.5964 1.50527 4.58683 1.53364C4.07027 3.07015 3.55333 4.60684 3.03676 6.14354C2.42982 7.94893 1.82288 9.7545 1.21763 11.5606C1.20563 11.5966 1.20413 11.6432 1.21707 11.6776C1.22457 11.6979 1.27819 11.721 1.29751 11.7125C1.33032 11.698 1.36557 11.6641 1.37738 11.6305C1.47357 11.3576 1.56469 11.083 1.65695 10.8087C2.47201 8.38396 3.28708 5.95903 4.10214 3.53429C4.33146 2.85189 4.5604 2.16949 4.78971 1.48728C4.79627 1.46762 4.8049 1.44889 4.81577 1.42126C4.86546 1.42905 4.91534 1.43499 4.96446 1.44463C5.57703 1.56423 6.1894 1.68532 6.80234 1.80289C6.88466 1.81865 6.92253 1.85796 6.94616 1.93751C7.82722 4.89519 8.71035 7.85213 9.59348 10.8093C9.63698 10.955 9.62067 10.9808 9.46692 11.0001C8.95504 11.0642 8.44354 11.1336 7.93035 11.1862C7.80566 11.1992 7.67441 11.1597 7.54747 11.1375C7.37816 11.1076 7.20922 11.0752 7.04235 11.0346C7.00447 11.0253 6.95534 10.9836 6.94616 10.948C6.83853 10.538 6.73766 10.1263 6.63528 9.71501C6.63247 9.7037 6.63378 9.69127 6.63266 9.6705C6.85916 9.65826 7.08435 9.64417 7.30991 9.63712C7.32978 9.63638 7.36166 9.67885 7.3701 9.70666C7.48297 10.0747 7.59266 10.4438 7.70347 10.8126C7.72297 10.8771 7.73254 10.9659 7.82985 10.9392C7.93504 10.9105 7.88947 10.828 7.8696 10.7612C7.75297 10.3694 7.63597 9.97758 7.51897 9.58594C7.48072 9.45855 7.47041 9.45039 7.33466 9.45744C6.45753 9.50305 5.5804 9.54941 4.70346 9.59522C4.54071 9.60375 4.37796 9.61376 4.21502 9.6171C4.14921 9.61839 4.12127 9.64232 4.10364 9.70481C3.92889 10.3221 3.74833 10.9379 3.57639 11.556C3.54864 11.6552 3.50308 11.6971 3.40052 11.7097C2.68782 11.7974 1.97551 11.8902 1.26338 11.9818C1.24051 11.9847 1.21857 11.9936 1.19626 11.9999H1.0695C1.05038 11.9875 1.03257 11.9725 1.01194 11.9628C0.737441 11.8355 0.462377 11.7097 0.188251 11.5814C0.123751 11.5514 0.0626253 11.5141 0 11.48V11.3904Z" fill="#CDD6DE"/>
<mask id="mask0" mask-type="alpha" maskUnits="userSpaceOnUse" x="8" y="0" width="4" height="8">
<path d="M8.42719 0H12V7.77073H8.42719V0Z" fill="#CDD6DE"/>
</mask>
<g mask="url(#mask0)">
<path fill-rule="evenodd" clip-rule="evenodd" d="M12 7.53258C11.9068 7.59284 11.8105 7.64903 11.7216 7.71505C11.6612 7.75992 11.6005 7.77197 11.5279 7.76548C11.0651 7.72506 10.6018 7.68816 10.1389 7.64699C9.95421 7.63067 9.95458 7.62696 9.95458 7.44431V2.66808V2.54068C9.48714 2.95494 8.9942 3.30245 8.43357 3.57188C8.4317 3.53869 8.42926 3.51403 8.42926 3.48918C8.42889 3.06491 8.43114 2.64082 8.4272 2.21673C8.42645 2.13829 8.45532 2.09879 8.52414 2.06746C9.01783 1.84215 9.42752 1.5106 9.77908 1.10245C9.99133 0.856383 10.1254 0.573039 10.2214 0.269112C10.2388 0.213482 10.2591 0.186223 10.3217 0.178064C10.6956 0.129665 11.0689 0.0762601 11.4424 0.0247094C11.454 0.0230404 11.466 0.0245239 11.4895 0.0245239V0.139864V7.37162C11.4895 7.40463 11.4803 7.44283 11.494 7.46879C11.5112 7.50105 11.5474 7.54315 11.5765 7.54389C11.6044 7.54445 11.6434 7.50272 11.6592 7.47083C11.6736 7.44172 11.6644 7.40055 11.6644 7.36476C11.6646 4.95133 11.6646 2.53753 11.6646 0.124102V-0.00366211C11.7887 0.124844 11.8945 0.23425 12 0.343657V7.53258Z" fill="#CDD6DE"/>
</g>
</svg>
