<svg width="28" height="28" viewBox="0 0 28 28" fill="none" xmlns="http://www.w3.org/2000/svg">
<g filter="url(#filter0_d)">
<path fill-rule="evenodd" clip-rule="evenodd" d="M4 12C4 6.47691 8.39323 2 13.8131 2C19.2329 2 23.6262 6.47691 23.6262 12C23.6262 17.5231 19.2329 22 13.8131 22C8.39323 22 4 17.5231 4 12ZM5.53329 12C5.53329 16.66 9.24015 20.4375 13.8131 20.4375C18.386 20.4375 22.0929 16.66 22.0929 12C22.0929 7.33996 18.386 3.5625 13.8131 3.5625C9.24015 3.5625 5.53329 7.33996 5.53329 12Z" fill="#F29100"/>
<path fill-rule="evenodd" clip-rule="evenodd" d="M16.1418 10.4692H14.4348V9.19969C14.4348 8.81027 14.8301 8.71996 15.0146 8.71996C15.1978 8.71996 16.1173 8.71996 16.1173 8.71996V7.00672L14.8534 7C13.1291 7 12.7356 8.27746 12.7356 9.09656V10.4693H11.4844V12.2344H12.7356C12.7356 14.5006 12.7356 17 12.7356 17H14.4348C14.4348 17 14.4348 14.475 14.4348 12.2344H15.8782L16.1418 10.4692Z" fill="#F29100"/>
</g>
<defs>
<filter id="filter0_d" x="0" y="0" width="27.6262" height="28" filterUnits="userSpaceOnUse" color-interpolation-filters="sRGB">
<feFlood flood-opacity="0" result="BackgroundImageFix"/>
<feColorMatrix in="SourceAlpha" type="matrix" values="0 0 0 0 0 0 0 0 0 0 0 0 0 0 0 0 0 0 127 0"/>
<feOffset dy="2"/>
<feGaussianBlur stdDeviation="2"/>
<feColorMatrix type="matrix" values="0 0 0 0 0 0 0 0 0 0 0 0 0 0 0 0 0 0 0.104704 0"/>
<feBlend mode="normal" in2="BackgroundImageFix" result="effect1_dropShadow"/>
<feBlend mode="normal" in="SourceGraphic" in2="effect1_dropShadow" result="shape"/>
</filter>
</defs>
</svg>
