<svg width="64" height="88" viewBox="0 0 64 88" fill="none" xmlns="http://www.w3.org/2000/svg">
<path fill-rule="evenodd" clip-rule="evenodd" d="M61.8523 5.06873C57.1839 5.06873 53.1355 3.95307 48.8408 2.76245C43.8971 1.40632 38.7881 0 31.9969 0C31.9308 0 31.8704 0.00476503 31.805 0.00476503C25.1166 0.0317669 20.0481 1.41934 15.152 2.76245C10.8642 3.94608 6.80789 5.06873 2.14736 5.06873C1.43116 5.06873 0.715263 5.03569 0 4.98581V47.9559C0 68.1016 27.95 86.3726 31.805 86.9714C31.8695 86.9813 31.9459 87 31.9969 87C35.0771 87 64 68.4402 64 47.9559V4.98581C63.2841 5.03569 62.5607 5.06873 61.8523 5.06873Z" fill="#FEFEFE"/>
<path fill-rule="evenodd" clip-rule="evenodd" d="M30.9716 68.6261C31.5515 68.8011 32.1752 68.9021 32.8586 68.9021C35.3154 68.9021 37.1192 67.7792 38.2717 65.5344C39.4239 63.2905 40 59.7783 40 55.0003C40 50.2217 39.4239 46.7199 38.2717 44.4946C37.1192 42.2686 35.3154 41.1564 32.8586 41.1564C32.1752 41.1564 31.5515 41.2584 30.9716 41.4346V41.4692C30.008 41.8028 29.2474 42.3463 28.6542 42.9563V35H22.5122C22.0366 36.8889 21.384 38.3526 20.5559 39.3937C19.7276 40.4338 18.6133 41.1998 17.2132 41.6908C15.8137 42.1824 13.7427 42.5144 11 42.6878V48.1792H20.5989V66.0005L26.5922 75H28.6542V45.1596C29.025 44.4272 29.7221 43.4375 30.9716 42.8688V68.6261Z" fill="#F29100"/>
<path fill-rule="evenodd" clip-rule="evenodd" d="M59.8542 47.9559L57.7057 53.0444H56.4002L58.507 48.3171H55.5654V47.2342H59.8542V47.9559ZM55.5151 53.0444H51.408V52.0532C51.8573 51.6698 52.2662 51.3035 52.6354 50.9538C53.0043 50.6037 53.2895 50.3134 53.4908 50.0824C53.6915 49.8515 53.8478 49.6304 53.9597 49.4191C54.071 49.2079 54.127 48.9861 54.127 48.7539C54.127 48.5716 54.0595 48.4277 53.9244 48.3213C53.7897 48.2148 53.6037 48.1618 53.3667 48.1618C53.1106 48.1618 52.9012 48.2221 52.7386 48.3422C52.5763 48.4626 52.4413 48.6056 52.3337 48.7704L51.3918 48.0989C51.6259 47.7434 51.9032 47.4899 52.2243 47.339C52.5451 47.1878 52.9452 47.1122 53.4245 47.1122C54.0138 47.1122 54.4787 47.2523 54.8192 47.5322C55.159 47.812 55.3291 48.2053 55.3291 48.7117C55.3291 49.084 55.2622 49.4109 55.129 49.692C54.9952 49.9735 54.8051 50.2463 54.5588 50.5106C54.3121 50.7753 54.0051 51.0669 53.6371 51.3861C53.2695 51.7051 53.0431 51.8966 52.9574 51.9611H55.5151V53.0444ZM61.8653 5.06873C57.2252 5.06873 53.2013 3.95275 48.9326 2.76245C44.0189 1.406 38.9408 0 32.1907 0C32.1251 0 32.065 0.00444737 32 0.00476503V33.9852C32.6128 33.9315 33.2399 33.895 33.8964 33.895C39.2365 33.895 43.1601 35.5973 45.6677 39.0002C48.1748 42.4037 49.4284 47.7132 49.4284 54.9291C49.4284 62.1834 48.1748 67.5123 45.6677 70.9155C43.1601 74.319 39.2365 76.0204 33.8964 76.0204C33.2399 76.0204 32.6128 75.9842 32 75.9305V86.9714C32.0644 86.9813 32.1401 87 32.1907 87C35.2526 87 64 68.4399 64 47.9559V4.9855C63.2884 5.03569 62.5697 5.06873 61.8653 5.06873Z" fill="#F29100"/>
<path fill-rule="evenodd" clip-rule="evenodd" d="M31.9969 0C31.9311 0 31.8707 0.00476503 31.805 0.00476503C25.1166 0.0317669 20.0484 1.41934 15.1523 2.76245C10.8645 3.94608 6.80789 5.06873 2.14768 5.06873C1.43147 5.06873 0.715578 5.03601 0 4.98581V47.9559C0 68.1016 27.9503 86.3729 31.805 86.9714C31.8698 86.9816 31.9459 87 31.9969 87C35.0775 87 64 68.4402 64 47.9559V4.98581C63.2844 5.03601 62.561 5.06873 61.8523 5.06873C57.1842 5.06873 53.1355 3.95307 48.8408 2.76245C43.8971 1.40632 38.7884 0 31.9969 0ZM32.0116 2.61283C38.4336 2.61505 43.3609 3.96673 48.1258 5.27394L48.156 5.2822C52.2872 6.4274 56.5552 7.61071 61.4129 7.67869V47.9559C61.4129 53.3093 59.085 61.9429 47.9947 72.6696C40.8024 79.626 33.836 83.6619 32.0063 84.3271C30.2361 83.7042 23.2284 79.6631 15.994 72.6633C4.91342 61.9423 2.5874 53.3096 2.5874 47.9559V7.67869C7.39199 7.61325 11.4813 6.48458 15.8037 5.29141L15.8305 5.28411C20.563 3.98579 25.4569 2.64332 31.8138 2.61759C31.8758 2.61759 31.9352 2.61569 31.9947 2.61346L32.0116 2.61283Z" fill="#F8B34F"/>
<path fill-rule="evenodd" clip-rule="evenodd" d="M14.1201 13.0671V32.5486C11.7029 32.5541 9.75587 32.6346 8.32466 32.7878L14.1201 13.0671ZM14.8256 13.0671L20.621 32.7878C19.1892 32.6346 17.2421 32.5541 14.8256 32.5486V13.0671ZM48.8779 13.0684L54.6724 32.7872C53.2471 32.633 51.3004 32.5525 48.8779 32.5493V13.0684ZM48.1724 32.5493C45.7565 32.5525 43.8104 32.633 42.3783 32.7872L48.1724 13.0696V32.5493ZM6.18889 33.609C6.8207 33.5758 6.9544 33.7918 7.24667 34.2428C7.31943 34.3546 7.39965 34.4775 7.49604 34.6103C8.29855 35.7016 9.09173 36 11.1861 36H17.7642C19.8536 36 20.6456 35.7016 21.4481 34.6097C21.5435 34.4775 21.6237 34.3546 21.6971 34.2437C21.9906 33.7918 22.1144 33.5806 22.7611 33.609C22.8354 33.6 22.9107 33.5612 22.939 33.486C22.9657 33.4105 22.9424 33.3252 22.8805 33.2748C22.837 33.2395 22.5634 33.0579 21.3884 32.8853L14.8271 10.563V10.0234C15.1331 10.1741 15.4496 10.3008 15.772 10.4018C16.2272 10.5426 16.7185 10.6346 17.2365 10.6783C17.7869 10.7114 18.3496 10.6878 18.9078 10.613C19.4357 10.5381 20.0131 10.4066 20.625 10.2219C20.9593 10.1187 21.2929 10.0081 21.6222 9.90112C21.8492 9.82595 22.0746 9.75078 22.3006 9.67912C22.9073 9.47909 23.4333 9.33545 23.9072 9.24276C24.4498 9.1402 24.9566 9.09211 25.4236 9.09688L25.797 9.10166C25.9031 9.1074 26.0271 9.12109 26.1356 9.13319C26.3415 9.15326 26.5557 9.19276 26.7945 9.25327C27.1847 9.34341 27.5743 9.47591 27.9508 9.64599C28.508 9.9059 29.035 10.2346 29.5173 10.6257C29.7191 10.7898 29.8335 10.9019 29.8839 10.9522L29.8858 10.9541C29.8727 11.0032 29.8646 11.0589 29.8596 11.0993L29.8173 11.421C29.8149 11.4421 29.8127 11.4612 29.8124 11.4809C29.8065 11.5679 29.8009 11.6564 29.8009 11.7373C29.8009 11.8564 29.8074 11.9695 29.8192 12.0596C29.8192 12.087 29.8214 12.1097 29.8236 12.13C29.8236 12.1332 29.827 12.1791 29.8276 12.1823L29.8637 12.4221C29.8649 12.4266 29.8814 12.5011 29.883 12.5065C29.9004 12.6017 29.9237 12.6922 29.9526 12.8046C29.9532 12.8088 29.9725 12.8629 29.9741 12.8655C29.9964 12.9355 30.0244 13.005 30.0549 13.076C30.0605 13.0993 30.0686 13.1203 30.0773 13.1403L30.2514 13.0849L30.0938 13.184C30.132 13.263 30.1712 13.341 30.2153 13.4136C30.2188 13.4216 30.2234 13.4299 30.2278 13.4369L30.2275 13.4382C30.266 13.505 30.3117 13.5783 30.386 13.6767L30.4694 13.7735C30.4756 13.7815 30.4818 13.7898 30.4883 13.7974C30.4818 13.7993 30.4756 13.8009 30.4697 13.8019C29.8553 13.9322 29.503 14.1921 29.503 14.5144C29.503 14.8116 29.7931 15.0508 30.3242 15.196V34.1498C30.6251 34.0788 30.928 34.0307 31.2426 34.0268C31.2597 34.023 31.2756 34.0163 31.2927 34.0131C31.3978 33.9918 31.4939 33.9969 31.5819 34.0186C31.9254 33.9966 32.27 33.9813 32.6117 33.9724V15.196C33.1424 15.0492 33.4972 14.8103 33.4972 14.5144C33.4972 14.1937 33.1452 13.9338 32.5389 13.8035C32.528 13.8009 32.5178 13.7984 32.5069 13.7962C32.5097 13.7917 32.5116 13.7898 32.5147 13.7863C32.5482 13.7509 32.5821 13.7153 32.588 13.7025C32.5943 13.6977 32.6375 13.6503 32.6431 13.6442C32.6885 13.5789 32.7326 13.5057 32.7451 13.4751C32.7622 13.4573 32.773 13.442 32.7824 13.4187C32.8144 13.3668 32.8408 13.3098 32.8676 13.2534L32.8999 13.1859C32.9005 13.1849 32.9357 13.105 32.9366 13.1034L33.0209 12.8801C33.0305 12.8566 33.0386 12.8419 33.0386 12.8167C33.0709 12.7155 33.098 12.6139 33.1154 12.5154C33.1241 12.4788 33.1297 12.447 33.1312 12.4177C33.1499 12.3396 33.1617 12.2549 33.1657 12.1902C33.1707 12.167 33.1729 12.1453 33.1751 12.1218C33.1751 12.1202 33.1807 12.074 33.1807 12.0718C33.1869 11.9622 33.1928 11.8526 33.1928 11.7373C33.1928 11.6536 33.1928 11.5599 33.1869 11.4685C33.1863 11.4558 33.1782 11.4121 33.1751 11.4C33.1751 11.3389 33.1698 11.2831 33.1595 11.2025L33.1381 11.0825C33.1328 11.0395 33.1247 10.993 33.1182 10.9703C33.1166 10.963 33.1154 10.9567 33.1138 10.9493C33.1657 10.8958 33.2705 10.7977 33.4832 10.6257C33.9633 10.2356 34.4906 9.9059 35.0481 9.64695C35.4371 9.47113 35.8155 9.34277 36.2091 9.25264C36.4429 9.19276 36.6566 9.1539 36.8605 9.13319C36.9725 9.12109 37.0965 9.1074 37.1991 9.10166L37.5785 9.09688C38.0408 9.09911 38.5498 9.1402 39.0914 9.24276C39.5544 9.33385 40.0653 9.47272 40.7014 9.67912C40.9318 9.75333 41.1638 9.83009 41.3967 9.90653C41.7179 10.0139 42.0415 10.1209 42.3705 10.2228C42.998 10.4098 43.561 10.5372 44.0937 10.613C44.6512 10.6872 45.2099 10.7104 45.7618 10.6773C46.272 10.6356 46.7658 10.5426 47.2294 10.4018C47.5465 10.3024 47.8568 10.1776 48.1724 10.0218V10.563L41.6115 32.8853C40.4605 33.0538 40.1781 33.2264 40.1172 33.2774C40.0575 33.3274 40.0348 33.4121 40.0622 33.4879C40.0905 33.5621 40.1766 33.608 40.2394 33.609C40.87 33.5758 41.0046 33.7918 41.2972 34.2428C41.3699 34.3546 41.4501 34.4775 41.5462 34.6103C42.3494 35.7016 43.1419 36 45.237 36H51.8144C53.9013 36 54.6951 35.7016 55.506 34.6097C55.6027 34.4759 55.6829 34.3517 55.756 34.2371C56.0452 33.7911 56.1792 33.5711 56.8113 33.609C56.8999 33.6106 56.9606 33.5621 56.9882 33.4879C57.0159 33.4121 56.9938 33.3274 56.9323 33.2774C56.8726 33.2264 56.5899 33.0538 55.4389 32.8853L48.8779 10.563V9.77817C48.9802 9.74983 49.0804 9.70746 49.1786 9.65236C49.1792 9.65173 49.1811 9.65077 49.1817 9.65077C49.1867 9.64854 49.191 9.64536 49.1954 9.64376C49.2787 9.59376 49.3518 9.53451 49.4131 9.46699C49.4345 9.45584 49.4535 9.4396 49.4684 9.42176L49.5831 9.28321C49.7579 9.04274 49.8502 8.7564 49.8502 8.45509C49.8502 7.68876 49.2458 7.06639 48.5008 7.06639C47.7536 7.06639 47.1451 7.68876 47.1451 8.45509C47.1451 8.91215 47.369 9.33003 47.7204 9.58325C47.5033 9.65395 47.2869 9.70969 47.0665 9.75429C46.6445 9.84124 46.2021 9.88296 45.7447 9.86767C45.2973 9.85653 44.8032 9.78391 44.2796 9.65013C43.7924 9.52082 43.293 9.34341 42.7539 9.11058C42.4507 8.97967 42.1454 8.8373 41.836 8.6927C41.6181 8.59109 41.3988 8.48853 41.1772 8.38884C40.5463 8.09932 39.9888 7.87668 39.4726 7.70978C38.8679 7.51613 38.2585 7.3849 37.6587 7.31706L37.2228 7.27852C36.7635 7.25877 36.3431 7.26546 35.8969 7.31706C35.3929 7.37184 34.879 7.48237 34.323 7.65341C33.907 7.78782 33.5084 7.95758 33.1163 8.14964C33.1745 7.9321 33.2077 7.69704 33.1657 7.41739C33.0967 6.93612 32.8729 6.40326 32.5893 5.72866C32.2989 5.03686 31.9379 4.17561 31.6503 3.11912C31.6313 3.04905 31.5688 3 31.4976 3H31.4973C31.4258 3 31.3636 3.04905 31.3443 3.11976C31.057 4.18453 30.6935 5.05151 30.401 5.74713C30.1211 6.41377 29.9001 6.94122 29.8292 7.41644C29.7884 7.69481 29.8195 7.93083 29.877 8.14773C29.4868 7.95758 29.0857 7.7875 28.6685 7.65341C28.1163 7.48237 27.6042 7.3728 27.1036 7.3177C26.8131 7.2833 26.5178 7.26546 26.2267 7.26546C26.0781 7.26546 25.936 7.2712 25.7669 7.27916L25.3303 7.3177C24.7312 7.38554 24.1224 7.51772 23.5201 7.70978C23.0108 7.87509 22.4716 8.09135 21.8246 8.38884C21.6153 8.48312 21.4086 8.57835 21.2046 8.67422C20.8803 8.8252 20.5607 8.9733 20.2395 9.11058C19.7121 9.33959 19.2016 9.52082 18.7231 9.65013C18.1964 9.78391 17.7026 9.85653 17.2549 9.86767C16.7966 9.88169 16.3491 9.84124 15.9266 9.75429C15.7067 9.70906 15.4894 9.65236 15.2777 9.58388C15.6312 9.33003 15.8548 8.91215 15.8548 8.45509C15.8548 7.68876 15.2469 7.06639 14.4997 7.06639C13.7554 7.06639 13.15 7.68876 13.15 8.45509C13.15 8.75735 13.242 9.04274 13.4233 9.29181L13.5396 9.43068C13.5477 9.43801 13.5632 9.45266 13.5803 9.4654C13.6472 9.53292 13.7134 9.58548 13.7852 9.63166C13.7945 9.63867 13.8048 9.64599 13.8154 9.65236C13.9155 9.70842 14.0178 9.75078 14.1223 9.77913V10.563L7.56164 32.8853C6.41058 33.0538 6.12733 33.2264 6.06794 33.2774C6.00668 33.3274 5.98399 33.4121 6.01166 33.4879C6.04027 33.5621 6.12391 33.608 6.18889 33.609Z" fill="#536780"/>
<path fill-rule="evenodd" clip-rule="evenodd" d="M14.6963 62.8479C12.2043 61.6847 10.1868 61.3357 9.07746 61.7105C13.1791 67.9675 17.8924 74.2812 26.3577 78.1076C26.3577 78.1076 30.6476 82.4005 32 83C31.9766 82.9802 13.8993 59.4483 4.16794 42C4.16794 42 3.06594 50.867 6.50775 57.3809C6.85613 58.0402 12.0855 59.8237 14.6963 62.8479Z" fill="#536780"/>
<path fill-rule="evenodd" clip-rule="evenodd" d="M39.6034 45.9065C40.2477 47.1942 40.7127 48.8933 41 51C40.7441 48.2252 40.226 46.0524 39.4429 44.4872C38.2792 42.1619 36.4584 41 33.9788 41C33.2597 41 32.6057 41.1144 32 41.3136V42.7829C32.6493 42.5495 33.3571 42.4193 34.1392 42.4193C36.6192 42.4193 38.4397 43.5811 39.6034 45.9065Z" fill="#536780"/>
<path fill-rule="evenodd" clip-rule="evenodd" d="M32 76.8944C32.6981 76.9597 33.4175 77 34.1707 77C39.6129 77 43.6115 75.326 46.1671 71.9774C48.722 68.6295 50 63.3862 50 56.249C50 53.9721 49.8668 51.8909 49.604 50C49.7588 51.5199 49.8369 53.1523 49.8369 54.8997C49.8369 62.037 48.5592 67.2799 46.0043 70.6282C43.4487 73.9768 39.4501 75.6507 34.0079 75.6507C33.312 75.6507 32.6477 75.6136 32 75.557V76.8944Z" fill="#536780"/>
<path fill-rule="evenodd" clip-rule="evenodd" d="M32.0124 86.651C31.9615 86.651 31.8853 86.6325 31.8206 86.6227C27.9659 86.0303 0.0154125 67.9528 0.0154125 48.0205V47.7216C0.00754899 47.4812 0 47.2408 0 47V49.3699C0 69.3021 27.9501 87.3792 31.8048 87.972C31.8696 87.9818 31.9457 88 31.9967 88C35.0773 88 64 69.6368 64 49.3699V48.7296C63.3398 68.714 35.0569 86.651 32.0124 86.651Z" fill="#536780"/>
</svg>
