<svg width="28" height="28" viewBox="0 0 28 28" fill="none" xmlns="http://www.w3.org/2000/svg">
<g filter="url(#filter0_d)">
<path fill-rule="evenodd" clip-rule="evenodd" d="M4 12C4 6.47691 8.39323 2 13.8131 2C19.2329 2 23.6262 6.47691 23.6262 12C23.6262 17.5231 19.2329 22 13.8131 22C8.39323 22 4 17.5231 4 12ZM5.53329 12C5.53329 16.66 9.24015 20.4375 13.8131 20.4375C18.386 20.4375 22.0929 16.66 22.0929 12C22.0929 7.33996 18.386 3.5625 13.8131 3.5625C9.24015 3.5625 5.53329 7.33996 5.53329 12Z" fill="#F29100"/>
<mask id="mask0" mask-type="alpha" maskUnits="userSpaceOnUse" x="8" y="9" width="12" height="7">
<path fill-rule="evenodd" clip-rule="evenodd" d="M8.32434 9.02698H19.1352V15.5135H8.32434V9.02698Z" fill="white"/>
</mask>
<g mask="url(#mask0)">
<path fill-rule="evenodd" clip-rule="evenodd" d="M13.6136 15.4863H14.2598C14.2598 15.4863 14.455 15.4638 14.5547 15.3508C14.6464 15.2471 14.6435 15.0521 14.6435 15.0521C14.6435 15.0521 14.6309 14.1403 15.0333 14.006C15.43 13.8737 15.9394 14.8874 16.4794 15.2772C16.8877 15.5721 17.1979 15.5075 17.1979 15.5075L18.6416 15.4863C18.6416 15.4863 19.3969 15.4374 19.0388 14.8128C19.0094 14.7618 18.8302 14.3509 17.9654 13.5065C17.0601 12.6228 17.1813 12.7658 18.2718 11.2372C18.9359 10.3062 19.2014 9.73788 19.1185 9.49446C19.0394 9.26261 18.5509 9.32389 18.5509 9.32389L16.9254 9.33454C16.9254 9.33454 16.8049 9.31725 16.7155 9.37344C16.6282 9.42855 16.572 9.55697 16.572 9.55697C16.572 9.55697 16.3147 10.2774 15.9716 10.89C15.2477 12.1827 14.9583 12.251 14.84 12.1707C14.5648 11.9836 14.6335 11.4191 14.6335 11.0181C14.6335 9.76535 14.8142 9.24301 14.2817 9.10779C14.105 9.06287 13.975 9.03324 13.5231 9.02845C12.9431 9.02212 12.4522 9.0303 12.1742 9.17355C11.9893 9.26879 11.8466 9.48103 11.9335 9.49322C12.0409 9.50835 12.2843 9.56222 12.4133 9.74699C12.5798 9.98531 12.574 10.5206 12.574 10.5206C12.574 10.5206 12.6697 11.9954 12.3504 12.1786C12.1313 12.3042 11.8308 12.0477 11.1854 10.8749C10.8548 10.2741 10.6051 9.61007 10.6051 9.61007C10.6051 9.61007 10.557 9.48597 10.4711 9.41959C10.3669 9.33917 10.2213 9.31355 10.2213 9.31355L8.67664 9.3242C8.67664 9.3242 8.44476 9.33099 8.35963 9.43704C8.2839 9.53135 8.35362 9.72646 8.35362 9.72646C8.35362 9.72646 9.56295 12.7022 10.9323 14.2017C12.1878 15.5766 13.6136 15.4863 13.6136 15.4863Z" fill="#F29100"/>
</g>
</g>
<defs>
<filter id="filter0_d" x="0" y="0" width="27.6262" height="28" filterUnits="userSpaceOnUse" color-interpolation-filters="sRGB">
<feFlood flood-opacity="0" result="BackgroundImageFix"/>
<feColorMatrix in="SourceAlpha" type="matrix" values="0 0 0 0 0 0 0 0 0 0 0 0 0 0 0 0 0 0 127 0"/>
<feOffset dy="2"/>
<feGaussianBlur stdDeviation="2"/>
<feColorMatrix type="matrix" values="0 0 0 0 0 0 0 0 0 0 0 0 0 0 0 0 0 0 0.104704 0"/>
<feBlend mode="normal" in2="BackgroundImageFix" result="effect1_dropShadow"/>
<feBlend mode="normal" in="SourceGraphic" in2="effect1_dropShadow" result="shape"/>
</filter>
</defs>
</svg>
